<svg width="512" height="536" viewBox="0 0 512 536" fill="none" xmlns="http://www.w3.org/2000/svg">
<rect width="512" height="536" fill="white"/>
<g opacity="0.7">
<path d="M17.4579 268L0 314.556V500.757H63.9826V535.691H98.9145L133.812 500.757H186.172L256 430.954V268H17.4579ZM40.7167 291.263H232.731V419.292L191.992 460.033H128L93.1127 494.919V460.033H40.7167V291.263ZM104.725 407.668H128V337.844H104.725V407.668ZM168.722 407.668H191.992V337.844H168.722V407.668Z" fill="black"/>
</g>
<g opacity="0.7">
<path d="M273.458 0L256 46.5559V232.757H319.983V267.691H354.914L389.812 232.757H442.172L512 162.954V0H273.458ZM296.717 23.2632H488.731V151.292L447.992 192.033H384L349.113 226.919V192.033H296.717V23.2632ZM360.725 139.668H384V69.8439H360.725V139.668ZM424.722 139.668H447.992V69.8439H424.722V139.668Z" fill="black"/>
</g>
</svg>
